<svg width="460" height="464" viewBox="0 0 460 464" fill="none" xmlns="http://www.w3.org/2000/svg">
<path d="M150.112 377.424L83.8159 375.592C111.36 399.914 135.828 410.634 144.618 412.954L150.112 377.424Z" fill="#EC1D24"/>
<path d="M86.8716 370.593L153.167 372.425L155.435 372.488L155.088 374.73L149.594 410.26L149.255 412.454L147.108 411.888C137.959 409.473 113.22 398.576 85.4917 374.091L81.3579 370.441L86.8716 370.593Z" stroke="white" stroke-width="4"/>
<path d="M14.6598 185.488C22.7078 99.2561 103.254 50.5301 142.52 36.9441C84.2639 87.0941 92.2678 102.13 92.2678 102.13C92.2678 102.13 103.646 94.3461 109.154 93.1481C101.25 114.106 90.1838 157.678 109.154 164.29C128.126 170.9 151.074 119.616 160.176 93.1481C157.66 200.938 120.176 272.56 67 262.5C13.824 252.44 14.6598 226.088 14.6598 185.488Z" fill="#EC1D24"/>
<path d="M145.866 31.0544C146.773 30.7406 147.775 31.115 148.253 31.947C148.732 32.779 148.552 33.8335 147.825 34.4597C118.774 59.4686 106.428 75.5718 101.318 85.2751C98.9965 89.6831 98.1996 92.7139 97.9741 94.6179C99.011 93.9562 100.267 93.1733 101.625 92.3679C103.417 91.3046 105.407 90.1902 107.315 89.2595C109.192 88.3436 111.111 87.546 112.729 87.1941C113.445 87.0384 114.189 87.2869 114.667 87.8416C115.146 88.3963 115.283 89.1686 115.025 89.8542C111.109 100.239 106.427 116.189 105.067 130.291C104.385 137.355 104.555 143.792 105.964 148.789C107.363 153.747 109.892 157.035 113.812 158.401L114.163 158.515C117.803 159.609 121.925 158.166 126.542 154.173C131.269 150.083 136.071 143.673 140.654 136.089C149.801 120.95 157.76 101.656 162.285 88.4978C162.605 87.5652 163.558 87.0055 164.529 87.1794C165.499 87.3535 166.198 88.2093 166.175 89.1951C164.913 143.287 154.186 188.999 136.955 220.007C119.736 250.991 95.6799 267.76 67.8696 262.499C40.9291 257.402 27.7834 247.529 21.6714 233.251C18.6651 226.228 17.4317 218.293 16.9321 209.668C16.4338 201.063 16.6597 191.567 16.6597 181.488C16.6597 181.426 16.6627 181.364 16.6685 181.302C20.7498 137.572 43.215 103.41 69.5083 78.5212C95.7853 53.6483 125.991 37.931 145.866 31.0544Z" stroke="white" stroke-width="4" stroke-linejoin="round"/>
<path d="M144.954 366.01C116.566 325.406 121.148 277.524 126.986 258.658C65.9 297.286 33.56 268.99 12 247.43C31.764 322.89 62.456 357.926 75.332 366.01H144.954Z" fill="#EC1D24"/>
<path d="M16.4141 243.016C27.185 253.787 40.3338 265.893 58.1895 270.683C75.9316 275.442 98.7149 273.066 128.917 253.968L133.499 251.07L131.896 256.249C126.176 274.735 121.668 321.922 149.593 361.864L151.793 365.01H77.7559L77.2686 364.703C70.4634 360.431 59.3758 349.363 47.543 330.031C35.6782 310.646 22.9921 282.837 13.0654 244.937L11.1953 237.797L16.4141 243.016Z" stroke="white" stroke-width="4"/>
<path d="M309.874 377.424L376.17 375.592C348.626 399.914 324.16 410.634 315.368 412.954L309.874 377.424Z" fill="#EC1D24"/>
<path d="M374.494 374.091C346.766 398.576 322.029 409.473 312.878 411.888L310.73 412.454L310.392 410.26L304.897 374.73L304.551 372.488L306.818 372.425L373.115 370.593L378.628 370.441L374.494 374.091Z" stroke="white" stroke-width="4"/>
<path d="M445.326 185.488C437.278 99.2561 356.734 50.5301 317.466 36.9441C375.724 87.0941 367.718 102.13 367.718 102.13C367.718 102.13 356.34 94.3461 350.832 93.1481C358.736 114.106 369.802 157.678 350.832 164.29C331.86 170.9 308.914 119.616 299.81 93.1481C302.326 200.938 341.824 272.06 395 262C448.176 251.94 443.5 223 445.326 185.488Z" fill="#EC1D24"/>
<path d="M443.326 181.488C443.326 191.567 443.552 201.063 443.053 209.668C442.554 218.293 441.321 226.228 438.315 233.251C432.203 247.529 419.057 257.402 392.116 262.499C364.305 267.76 340.251 250.991 323.032 220.007C305.8 188.999 295.074 143.287 293.811 89.1951C293.788 88.2092 294.487 87.3534 295.458 87.1794C296.428 87.0056 297.381 87.5654 297.702 88.4978C302.228 101.656 310.186 120.95 319.333 136.089C323.915 143.673 328.718 150.083 333.445 154.173C338.21 158.295 342.448 159.699 346.173 158.401C350.093 157.035 352.624 153.747 354.022 148.789C355.431 143.792 355.601 137.355 354.919 130.291C353.559 116.189 348.877 100.239 344.96 89.8542C344.702 89.1687 344.839 88.3963 345.318 87.8416C345.797 87.2868 346.541 87.0383 347.257 87.1941C348.875 87.5461 350.794 88.3437 352.671 89.2595C354.579 90.1902 356.568 91.3047 358.361 92.3679C359.718 93.1732 360.974 93.9562 362.011 94.6179C361.786 92.7139 360.991 89.6831 358.669 85.2751C353.56 75.5719 341.214 59.4688 312.162 34.4597C311.434 33.8336 311.254 32.779 311.732 31.947C312.21 31.1151 313.213 30.7407 314.12 31.0544C333.995 37.931 364.201 53.6483 390.478 78.5212C416.771 103.41 439.236 137.572 443.318 181.302C443.324 181.364 443.326 181.426 443.326 181.488Z" stroke="white" stroke-width="4" stroke-linejoin="round"/>
<path d="M315.032 366.01C343.42 325.406 338.838 277.524 333 258.658C394.086 297.286 426.426 268.99 447.986 247.43C428.222 322.89 397.53 357.926 384.654 366.01H315.032Z" fill="#EC1D24"/>
<path d="M446.921 244.937C436.994 282.837 424.308 310.646 412.443 330.031C400.611 349.363 389.523 360.431 382.718 364.703L382.23 365.01H308.193L310.394 361.864C338.318 321.922 333.81 274.735 328.09 256.249L326.487 251.07L331.069 253.968C361.271 273.066 384.055 275.443 401.797 270.683C419.653 265.893 432.801 253.787 443.572 243.016L448.791 237.797L446.921 244.937Z" stroke="white" stroke-width="4"/>
<path fill-rule="evenodd" clip-rule="evenodd" d="M258.5 236C259.117 249.06 259.071 234.288 266 268C275.646 299.608 271.52 318.504 267.5 326.576C267.275 327.274 264.401 338.24 264 363C284.015 367.27 286.064 378.95 294.572 420.578C278.115 435.1 257.559 432.724 239.475 433L239.492 438.998C239.475 433 239.475 433 239.475 439V433C221.391 432.724 200.868 435.1 179.412 425.578C187.918 383.948 189.92 369.006 209.936 364.736C209.536 339.98 203 326 202.5 333C201.897 328.174 197.974 317.663 197.5 303C197.188 293.356 198.673 281.814 202.5 269.274C209.429 235.562 199.883 284.56 200.5 271.5C201.376 294.218 208.664 254.82 199.095 278C189.524 301.178 202 329.5 213.716 326.576C213.097 321.198 216.741 305.108 236.25 283.774C236.25 283.774 234.5 283.5 234.5 274L237.5 285C237.5 285.674 239.989 286.866 240 287.5C240.009 286.866 237 284.448 237 283.774L239.492 286C240.5 287.5 242 288 242 288C261.509 309.334 257 328.5 265.268 326.576C268.199 324.001 266.891 317 269.048 317C271.205 317 273.272 294.004 269.048 283.774C259.479 260.594 257.624 258.718 258.5 236Z" fill="#EC1D24"/>
<path d="M233.746 434.376H233.744C233.746 434.376 233.75 434.375 233.754 434.374C233.751 434.375 233.748 434.376 233.746 434.376ZM233.826 434.364C233.81 434.366 233.795 434.368 233.783 434.37C233.793 434.369 233.804 434.367 233.816 434.365L233.819 434.364H233.826ZM234.08 278.343C234.512 279.738 234.944 280.705 235.304 281.359C235.487 281.693 235.652 281.946 235.787 282.133C235.855 282.226 235.915 282.302 235.967 282.364C235.992 282.395 236.016 282.423 236.037 282.446C236.048 282.458 236.058 282.469 236.067 282.479C236.072 282.484 236.077 282.49 236.081 282.494C236.083 282.496 236.086 282.499 236.088 282.501C236.089 282.502 236.09 282.504 236.091 282.505C236.092 282.506 236.107 282.496 237.538 281.124L236.094 282.508L236.106 282.521C246.381 293.054 252.416 302.232 255.798 309.365C259.211 316.566 259.85 321.529 259.587 323.683L258.979 328.653L262.844 325.47C264.723 323.922 266.82 321.424 268.564 318.052C267.522 322.556 266.229 325.97 265.094 328.107L265.02 328.247L264.969 328.396C264.859 328.714 264.805 329.121 264.77 329.405C264.725 329.768 264.678 330.249 264.629 330.861C264.531 332.089 264.42 333.902 264.305 336.452C264.073 341.556 263.819 349.662 263.604 362.052L263.575 363.72L265.212 364.047C270.333 365.071 274.149 366.705 277.179 369.107C280.208 371.51 282.588 374.791 284.666 379.33C288.775 388.308 291.492 401.667 295.85 421.711C273.789 430.65 252.715 434.078 234.098 434.348H234.066C215.447 434.079 194.37 430.651 172.31 421.711C176.666 401.666 179.384 388.307 183.493 379.329C185.571 374.79 187.952 371.509 190.981 369.106C194.011 366.704 197.828 365.071 202.948 364.047L204.584 363.72L204.556 362.052C204.342 349.664 204.088 341.558 203.856 336.454C203.741 333.904 203.63 332.091 203.531 330.863C203.482 330.251 203.436 329.768 203.391 329.405C203.355 329.12 203.301 328.715 203.192 328.397L203.141 328.248L203.066 328.108L202.877 327.743C201.79 325.592 200.582 322.311 199.598 318.058C201.341 321.427 203.437 323.922 205.316 325.47L209.184 328.654L208.573 323.683C208.309 321.53 208.947 316.567 212.361 309.365C215.743 302.232 221.78 293.054 232.054 282.521L232.06 282.515L232.065 282.508L230.622 281.124C232.066 282.508 232.068 282.507 232.069 282.505C232.07 282.504 232.071 282.502 232.072 282.501C232.074 282.499 232.076 282.496 232.078 282.494C232.083 282.489 232.088 282.485 232.093 282.479C232.102 282.469 232.112 282.458 232.122 282.446C232.143 282.422 232.168 282.395 232.193 282.364C232.245 282.302 232.306 282.225 232.374 282.131C232.51 281.944 232.675 281.69 232.858 281.355C233.218 280.701 233.65 279.735 234.08 278.343ZM258.146 227.713C259.841 239.672 262.061 252.77 264.906 265.748L264.928 265.845L264.958 265.939C267.252 272.986 268.717 279.641 269.569 285.807C268.97 284.027 268.262 282.197 267.435 280.318C262.484 269.074 259.772 250.783 258.442 232.246C258.334 230.734 258.237 229.221 258.146 227.713ZM210.013 227.713C209.922 229.221 209.826 230.734 209.718 232.246C208.429 250.203 205.845 267.93 201.184 279.243L200.726 280.318C199.899 282.196 199.19 284.024 198.591 285.802C199.443 279.637 200.909 272.984 203.202 265.939L203.232 265.845L203.254 265.748C206.099 252.77 208.318 239.672 210.013 227.713Z" stroke="white" stroke-width="4"/>
</svg>
